<svg width="543" height="222" viewBox="0 0 543 222" fill="none" xmlns="http://www.w3.org/2000/svg">
<path d="M300.523 144.938H289.354V198.777H300.523V144.938ZM366.269 198.777V144.938H356.491V183.95L331.846 144.938H319.375V198.777H329.153V160.461L353.4 198.777H366.269V198.777ZM381.533 196.908L384.325 188.256C388.022 189.93 391.808 190.811 397.105 190.811C403.286 190.811 406.684 188.746 406.684 184.821C406.684 179.898 402.988 178.43 395.704 175.484C389.423 173.027 381.94 169.289 381.94 159.374C381.94 149.46 389.721 143.95 401.298 143.95C407.579 143.95 413.273 145.516 415.956 146.798L413.77 155.146C410.481 153.482 405.889 152.494 401.706 152.494C395.813 152.494 392.722 154.657 392.722 158.092C392.722 162.516 397.204 164.278 402.501 166.343C408.583 168.701 418.063 172.039 418.063 183.734C418.063 194.246 410.381 199.854 397.214 199.854C389.334 199.854 384.941 198.484 381.553 196.908M430.932 144.928H441.913V178.234C441.913 187.082 445.102 191.3 454.086 191.3C463.069 191.3 466.16 187.072 466.16 178.234V144.928H476.435V179.418C476.435 194.843 467.352 199.952 454.086 199.952C440.014 199.952 430.932 194.647 430.932 179.418V144.928V144.928ZM494.491 144.928H513.839C534.191 144.928 542.28 156.908 542.28 172.049C542.28 187.189 534.598 199.169 513.452 199.169H494.491V144.928V144.928ZM512.249 190.811C527.116 190.811 530.902 184.126 530.902 172.049C530.902 159.971 527.106 153.287 512.746 153.287H505.462V190.82H512.239L512.249 190.811ZM203.942 67.0127H270.085L253.718 83.1224L203.932 67.0127H203.942ZM289.245 83.1224L272.888 67.0127H338.931L289.245 83.1224ZM271.993 132.949V67.8055L288.35 83.9152L271.993 132.949ZM288.35 48.9261L271.993 65.0455V0L288.35 48.9358V48.9261Z" fill="white"/>
<path d="M131.916 151.427C133.516 151.535 136.209 151.535 137.709 153.786C138.703 155.557 138.902 158.004 138.902 164.982V190.634C138.902 190.634 135.513 193.776 129.024 193.776C120.647 193.776 118.649 189.646 117.854 185.232C117.159 181.395 117.258 174.721 117.258 171.373V158.014C117.258 153.199 117.358 149.567 117.656 146.817L116.662 146.22C112.17 147.992 103.793 148.775 99.3013 148.775V151.427C100.504 151.535 103.594 151.535 105.095 153.786C106.089 155.557 106.287 158.004 106.287 164.982V175.102C106.287 181.288 106.188 186.309 107.48 190.439C108.98 195.342 113.065 200.167 123.638 200.167C130.028 200.167 134.917 198.2 139.21 193.678V199.58L140.005 200.177C140.005 200.177 141.307 199.482 145.888 198.601C150.181 197.818 156.869 197.622 156.869 197.622V195.166C155.775 195.068 152.675 195.068 151.184 192.807C150.091 191.143 149.892 188.481 149.892 181.405V166.764C149.892 158.024 149.892 150.458 150.29 146.827L149.296 146.23C144.805 148.002 136.427 148.785 131.936 148.785V151.437L131.916 151.427ZM96.2008 150.546V149.166C95.1971 148.178 93.4084 146.416 88.5192 146.416C80.3408 146.416 76.9521 151.339 75.5509 153.101V146.71L74.756 146.22C74.756 146.22 72.6592 147.111 68.9724 147.698C60.9927 148.98 57.8922 148.775 57.8922 148.775V151.427C58.9853 151.535 62.1852 151.535 63.5764 153.786C64.7788 155.753 64.8782 157.613 64.8782 165.178V182.276C64.8782 188.951 64.6795 192.2 62.8808 194.07C61.1815 195.841 59.4921 196.624 58.1903 196.722V199.179C58.1903 199.179 65.6732 198.787 71.258 198.787C77.7471 198.787 85.0213 199.179 85.0213 199.179V196.722C83.4214 196.722 78.9396 196.027 77.1409 193.473C76.1472 192.093 75.8391 188.755 75.8391 182.276V155.753C75.9385 155.655 78.1347 153.786 83.0239 153.786C86.5119 153.786 89.503 155.851 90.6061 159.482H92.8022L96.1909 150.546H96.2008ZM205.949 172.949C205.949 183.46 203.753 194.96 191.48 194.96C184.097 194.96 181.603 191.222 181.603 191.222V155.851C181.603 155.851 183.699 152.709 190.685 152.709C205.452 152.709 205.949 167.84 205.949 172.939M275.69 172.352C275.69 157.025 266.915 146.318 250.946 146.318C231.498 146.318 225.108 161.948 225.108 173.84C225.108 189.166 233.893 199.874 249.853 199.874C269.31 199.874 275.69 184.146 275.69 172.362M264.013 172.949C264.013 184.243 261.221 189.656 258.021 192.504C255.229 194.97 251.244 195.264 250.24 195.264C237.172 195.264 236.765 177.177 236.765 173.252C236.765 161.85 239.458 156.644 242.658 153.796C245.55 151.241 249.346 150.85 250.538 150.85C263.606 150.85 264.003 169.024 264.003 172.949M51.5919 152.024L50.8963 145.927L50.1013 145.437C45.8084 146.905 41.4161 147.992 34.7381 148.383C31.9457 146.905 28.6565 146.416 25.1585 146.416C11.6934 146.416 3.81301 154.177 3.81301 164.395C3.81301 176.776 15.082 179.927 16.0857 180.221C15.4894 180.417 7.70846 182.873 7.70846 190.341C7.70846 194.168 10.004 196.233 12.1008 197.515C6.21785 198.797 0.732422 202.232 0.732422 209.015C0.732422 220.221 14.0982 221.004 23.2803 221.004C41.2372 221.004 51.7112 213.243 51.7112 202.232C51.7112 190.634 42.4396 189.842 34.7481 189.842H22.376C19.5836 189.842 16.3937 189.46 16.3937 186.113C16.3937 184.243 17.9837 182.374 19.683 181.297C19.683 181.297 22.0779 181.591 24.3734 181.591C37.8386 181.591 45.9276 174.319 45.9276 164.689C45.9276 155.058 39.7466 152.112 39.6472 152.014H51.6217L51.5919 152.024ZM42.5191 205.276C42.5191 212.45 36.03 216.277 23.8567 216.277C19.0669 216.277 10.6897 215.69 10.6897 207.331C10.6897 203.505 11.4847 200.95 14.6845 198.787H32.6413C37.0337 198.787 42.5191 198.699 42.5191 205.276M34.5394 163.906C34.5394 168.525 33.7444 177.764 24.761 177.764C17.4769 177.764 15.1814 170.786 15.1814 164.013C15.1814 159.296 15.9764 150.36 24.8604 150.253C32.3432 150.165 34.5394 157.133 34.5394 163.906M163.646 151.535C165.246 151.633 168.038 151.427 169.429 153.796C170.522 155.665 170.632 157.818 170.632 164.992V202.917C170.632 212.548 170.532 213.233 168.634 215.396C166.935 217.363 165.345 217.862 163.437 218.048V220.515C163.437 220.515 169.529 220.113 176.604 220.113C182.497 220.113 191.57 220.515 191.57 220.515V217.862C189.871 217.862 184.693 217.461 182.885 214.809C181.891 213.341 181.593 212.548 181.593 205.873V198.21C181.593 198.21 184.683 199.883 191.371 199.883C202.749 199.883 210.63 194.285 214.515 185.633C216.215 181.806 217.308 177.177 217.308 171.491C217.308 159.413 211.623 146.338 195.753 146.338C184.981 146.338 181.384 152.729 181.384 152.729V146.827L180.39 146.23C175.899 148.002 168.118 148.785 163.626 148.785V151.544L163.646 151.535ZM253.728 49.7188L270.095 65.8383H203.942L253.728 49.7188V49.7188ZM338.931 65.8383H272.887L289.244 49.7188L338.931 65.8383ZM254.424 83.9152L270.791 67.8055V132.959L254.424 83.925V83.9152ZM270.791 0V65.0455L254.424 48.9261L270.791 0Z" fill="white"/>
</svg>
