<?xml version="1.0" ?><!DOCTYPE svg  PUBLIC '-//W3C//DTD SVG 1.1//EN'  'http://www.w3.org/Graphics/SVG/1.1/DTD/svg11.dtd'><svg enable-background="new 0 0 64 64" height="64px" version="1.1" viewBox="0 0 64 64" width="64px" xml:space="preserve" xmlns="http://www.w3.org/2000/svg" xmlns:xlink="http://www.w3.org/1999/xlink" fill="#ffa600"><g id="Layer_1"/><g id="Layer_2"><g><path d="M32,4.32C16.71,4.32,4.32,16.71,4.32,32S16.71,59.68,32,59.68S59.68,47.29,59.68,32S47.29,4.32,32,4.32z M21.76,21.46    c2.21,0,4.01,1.79,4.01,4.01c0,2.21-1.8,4.011-4.01,4.011c-2.22,0-4.01-1.801-4.01-4.011C17.75,23.25,19.54,21.46,21.76,21.46z     M43.58,42.25H20.42c-1.11,0-2-0.9-2-2s0.89-2,2-2h23.16c1.11,0,2,0.9,2,2S44.69,42.25,43.58,42.25z M42.24,29.48    c-2.221,0-4.01-1.801-4.01-4.011c0-2.22,1.789-4.01,4.01-4.01c2.21,0,4.01,1.79,4.01,4.01C46.25,27.68,44.45,29.48,42.24,29.48z"/></g></g></svg>