<?xml version="1.0" ?><!DOCTYPE svg  PUBLIC '-//W3C//DTD SVG 1.1//EN'  'http://www.w3.org/Graphics/SVG/1.1/DTD/svg11.dtd'><svg enable-background="new 0 0 64 64" height="64px" version="1.1" viewBox="0 0 64 64" width="64px" xml:space="preserve" xmlns="http://www.w3.org/2000/svg" xmlns:xlink="http://www.w3.org/1999/xlink" fill="#008362"><g id="Layer_1"/><g id="Layer_2"><g><path d="M32,4.32C16.71,4.32,4.32,16.71,4.32,32S16.71,59.68,32,59.68S59.68,47.29,59.68,32S47.29,4.32,32,4.32z M42.24,21.46    c2.21,0,4.01,1.79,4.01,4.01c0,2.21-1.8,4.011-4.01,4.011c-2.221,0-4.01-1.801-4.01-4.011C38.23,23.25,40.02,21.46,42.24,21.46z     M21.76,21.46c2.22,0,4.01,1.79,4.01,4.01c0,2.21-1.79,4.011-4.01,4.011c-2.22,0-4.01-1.801-4.01-4.011    C17.75,23.25,19.54,21.46,21.76,21.46z M48.18,43.89c-5.39,4.66-11.029,6.16-16.05,6.16c-9.01,0-16.05-4.84-16.16-4.91    c-0.9-0.64-1.12-1.89-0.48-2.79c0.63-0.899,1.88-1.119,2.78-0.489c0.6,0.42,14.61,9.96,27.3-1c0.83-0.721,2.1-0.63,2.819,0.21    C49.11,41.9,49.02,43.17,48.18,43.89z"/></g></g></svg>