<?xml version="1.0" ?>
<svg enable-background="new 0 0 64 64" height="64px" version="1.1" viewBox="0 0 64 64" width="64px" xml:space="preserve" xmlns="http://www.w3.org/2000/svg" xmlns:xlink="http://www.w3.org/1999/xlink" fill="#f95d6a">
<g id="Layer_1"/><g id="Layer_2">
<g>
<path d="M32,4.32C16.71,4.32,4.32,16.71,4.32,32S16.71,59.68,32,59.68S59.68,47.29,59.68,32S47.29,4.32,32,4.32z M42.24,21.46    c2.21,0,4.01,1.79,4.01,4.01c0,2.21-1.8,4.011-4.01,4.011c-2.22,0-4.01-1.801-4.01-4.011C38.23,23.25,40.02,21.46,42.24,21.46z     M21.76,21.46c2.21,0,4.01,1.79,4.01,4.01c0,2.21-1.8,4.011-4.01,4.011c-2.22,0-4.01-1.801-4.01-4.011    C17.75,23.25,19.54,21.46,21.76,21.46z M48.38,44.64c-0.63,0.9-1.88,1.11-2.78,0.48c-0.59-0.41-14.59-9.98-27.3,0.97    c-0.37,0.33-0.84,0.49-1.3,0.49c-0.56,0-1.12-0.24-1.52-0.7c-0.72-0.84-0.63-2.1,0.21-2.82c15.1-13.01,32.04-1.329,32.21-1.21    C48.8,42.49,49.02,43.73,48.38,44.64z"/>
</g>
</g>
</svg>