<?xml version="1.0" encoding="UTF-8"?>
<svg xmlns="http://www.w3.org/2000/svg" xmlns:xlink="http://www.w3.org/1999/xlink" width="50px" height="50px" viewBox="5 0 52 52" version="1.1">
<g id="surface1">
<path style=" stroke:none;fill-rule:nonzero;fill:#de5246;fill-opacity:1;" d="M 20.746094 19.769531 L 20.746094 32.230469 C 20.746094 32.878906 21.027344 33.367188 21.585938 33.691406 C 22.144531 34.015625 22.695312 34 23.238281 33.636719 L 33.042969 27.355469 C 33.546875 27.027344 33.800781 26.578125 33.800781 26 C 33.800781 25.421875 33.546875 24.972656 33.042969 24.644531 L 23.238281 18.363281 C 22.695312 18 22.144531 17.984375 21.585938 18.308594 C 21.027344 18.632812 20.746094 19.121094 20.746094 19.769531 Z M 26 47.667969 C 23.039062 47.667969 20.242188 47.097656 17.605469 45.960938 C 14.96875 44.824219 12.664062 43.269531 10.699219 41.300781 C 8.730469 39.335938 7.175781 37.03125 6.039062 34.394531 C 4.902344 31.757812 4.332031 28.960938 4.332031 26 C 4.332031 23.039062 4.902344 20.242188 6.039062 17.605469 C 7.175781 14.96875 8.730469 12.664062 10.699219 10.699219 C 12.664062 8.730469 14.96875 7.175781 17.605469 6.039062 C 20.242188 4.902344 23.039062 4.332031 26 4.332031 C 28.960938 4.332031 31.757812 4.902344 34.394531 6.039062 C 37.03125 7.175781 39.335938 8.730469 41.300781 10.699219 C 43.269531 12.664062 44.824219 14.96875 45.960938 17.605469 C 47.097656 20.242188 47.667969 23.039062 47.667969 26 C 47.667969 28.960938 47.097656 31.757812 45.960938 34.394531 C 44.824219 37.03125 43.269531 39.335938 41.300781 41.300781 C 39.335938 43.269531 37.03125 44.824219 34.394531 45.960938 C 31.757812 47.097656 28.960938 47.667969 26 47.667969 Z M 26 47.667969" />
</g>
</svg>
